<svg width="167" height="42" viewBox="0 0 167 42" fill="none" xmlns="http://www.w3.org/2000/svg">
<path fill-rule="evenodd" clip-rule="evenodd" d="M112.622 36.8588C139.807 30.3655 157.247 13.4985 164.968 0L166.704 0.993078C158.728 14.9369 140.846 32.1737 113.086 38.8041C85.7091 45.3433 48.8476 41.5394 2.55306 14.3118L4.15576 20.7144C4.28987 21.2501 3.96427 21.7932 3.42851 21.9273C2.89276 22.0614 2.34973 21.7358 2.21562 21.2L0.0301674 12.4694C-0.103943 11.9337 0.221654 11.3906 0.757409 11.2565L9.48803 9.07108C10.0238 8.93696 10.5668 9.26256 10.7009 9.79832C10.835 10.3341 10.5094 10.8771 9.97369 11.0112L3.59926 12.6069C49.54 39.6183 85.8635 43.2501 112.622 36.8588Z" fill="white"/>
</svg>
