<svg width="39" height="105" viewBox="0 0 39 105" fill="none" xmlns="http://www.w3.org/2000/svg">
<path d="M37.9381 0.989616C37.9324 0.437361 37.48 -0.00568088 36.9278 5.39126e-05L27.9282 0.0935077C27.376 0.0992425 26.933 0.551583 26.9387 1.10384C26.9444 1.65609 27.3968 2.09913 27.949 2.0934L35.9486 2.01033L36.0317 10.0099C36.0374 10.5622 36.4897 11.0052 37.042 10.9995C37.5942 10.9937 38.0373 10.5414 38.0315 9.98913L37.9381 0.989616ZM15.9974 103.095C8.92377 97.2761 1.37495 85.2156 2.04112 68.0027C2.70718 50.7928 11.5946 28.3046 37.6526 1.69973L36.2237 0.300274C9.94242 27.1331 0.733777 50.0668 0.0426173 67.9253C-0.648424 85.7807 7.18437 98.435 14.7268 104.639L15.9974 103.095Z" fill="white"/>
</svg>
