<?xml version="1.0" standalone="no"?>
<!DOCTYPE svg PUBLIC "-//W3C//DTD SVG 20010904//EN"
 "http://www.w3.org/TR/2001/REC-SVG-20010904/DTD/svg10.dtd">
<svg version="1.0" xmlns="http://www.w3.org/2000/svg"
 width="512.000000pt" height="512.000000pt" viewBox="0 0 512.000000 512.000000"
 preserveAspectRatio="xMidYMid meet">
<metadata>
Created by potrace 1.14, written by Peter Selinger 2001-2017
</metadata>
<g transform="translate(0.000000,512.000000) scale(0.100000,-0.100000)"
fill="#000000" stroke="none">
<path d="M258 5101 c-75 -24 -147 -78 -191 -143 -71 -106 -66 88 -64 -2431 l2
-2272 26 -56 c33 -70 98 -135 169 -168 l55 -26 2310 0 2310 0 46 23 c74 36
125 87 161 160 l33 67 0 2295 0 2295 -28 56 c-41 84 -98 143 -175 181 l-67 33
-2265 2 c-2169 2 -2267 1 -2322 -16z"/>
</g>
</svg>
